<svg width="2713" height="805" viewBox="0 0 2713 805" fill="none" xmlns="http://www.w3.org/2000/svg">
<path fill-rule="evenodd" clip-rule="evenodd" d="M647.402 0H602.54L0 602.542V647.403L647.402 0ZM0 682.541V727.402L727.402 0H682.54L0 682.541ZM762.54 0L0 762.54V805H2.40235L807.402 0H762.54ZM842.54 0L37.5404 805H82.4023L887.402 0H842.54ZM922.54 0L117.54 805H162.402L967.402 0H922.54ZM1002.54 0L197.54 805H242.402L1047.4 0H1002.54ZM1082.54 0L277.54 805H322.402L1127.4 0H1082.54ZM1162.54 0L357.541 805H402.402L1207.4 0H1162.54ZM1242.54 0L437.541 805H482.402L1287.4 0H1242.54ZM1322.54 0L517.541 805H562.403L1367.4 0H1322.54ZM1402.54 0L597.541 805H642.402L1447.4 0H1402.54ZM1482.54 0L677.541 805H722.402L1527.4 0H1482.54ZM1562.54 0L757.54 805H802.402L1607.4 0H1562.54ZM1642.54 0L837.54 805H882.402L1687.4 0H1642.54ZM1722.54 0L917.54 805H962.402L1767.4 0H1722.54ZM1802.54 0L997.54 805H1042.4L1847.4 0H1802.54ZM1882.54 0L1077.54 805H1122.4L1927.4 0H1882.54ZM1962.54 0L1157.54 805H1202.4L2007.4 0H1962.54ZM2042.54 0L1237.54 805H1282.52L2087.52 0H2042.54ZM2122.66 0L1317.66 805H1362.63L2167.63 0H2122.66ZM2202.77 0L1397.77 805H1442.75L2247.75 0H2202.77ZM2282.89 0L1477.89 805H1522.86L2327.86 0H2282.89ZM2363 0L1558 805H1602.98L2407.98 0H2363ZM2443.12 0L1638.12 805H1683.09L2488.09 0H2443.12ZM2523.23 0L1718.23 805H1763.21L2568.21 0H2523.23ZM2603.35 0L1798.35 805H1843.33L2648.33 0H2603.35ZM2683.46 0L1878.46 805H1923.44L2713 15.4401V0H2683.46ZM2713 50.578L1958.58 805H2003.56L2713 95.5552V50.578ZM2713 130.693L2038.69 805H2083.67L2713 175.67V130.693ZM2713 210.808L2118.81 805H2163.79L2713 255.785V210.808ZM2713 290.923L2198.92 805H2243.9L2713 335.901V290.923ZM2713 371.039L2279.04 805H2324.02L2713 416.016V371.039ZM2713 451.154L2359.15 805H2404.13L2713 496.131V451.154ZM2713 531.269L2439.27 805H2484.25L2713 576.247V531.269ZM2713 611.384L2519.39 805H2564.36L2713 656.362V611.384ZM2713 691.5L2599.5 805H2644.48L2713 736.477V691.5ZM2713 771.615L2679.62 805H2713V771.615ZM0 567.404L567.402 0H522.54L0 522.541V567.404ZM0 487.403L487.402 0H442.54L0 442.54V487.403ZM0 407.402L407.402 0H362.54L0 362.542V407.402ZM0 327.404L327.402 0H282.54L0 282.541V327.404ZM0 247.403L247.402 0H202.541L0 202.54V247.403ZM0 167.402L167.402 0H122.541L0 122.541V167.402ZM0 87.403L87.4027 0H36.5406L0 36.5408V87.403ZM0 1.40267L1.40267 0H0V1.40267Z" fill="white"/>
</svg>
